<?xml version="1.0" encoding="utf-8"?>
<!-- Generator: Adobe Illustrator 20.1.0, SVG Export Plug-In . SVG Version: 6.00 Build 0)  -->
<svg version="1.1" id="map" xmlns="http://www.w3.org/2000/svg" xmlns:xlink="http://www.w3.org/1999/xlink" x="0px" y="0px"
	 viewBox="0 0 1080 1566" style="enable-background:new 0 0 1080 1566;" xml:space="preserve">
<style type="text/css">
	.st0{fill:none;stroke:#00BAB5;stroke-width:16;stroke-linecap:round;stroke-linejoin:round;stroke-miterlimit:10;}
	.st1{fill:none;stroke:#F68C2A;stroke-width:16;stroke-linecap:round;stroke-linejoin:round;stroke-miterlimit:10;}
	.st2{fill:none;stroke:#EE3231;stroke-width:16;stroke-linecap:round;stroke-linejoin:round;stroke-miterlimit:10;}
	.st3{fill:none;stroke:#000000;stroke-width:16;stroke-linecap:round;stroke-linejoin:round;stroke-miterlimit:10;}
	.st4{fill:none;stroke:#27398F;stroke-width:16;stroke-linecap:round;stroke-linejoin:round;stroke-miterlimit:10;}
	.st5{fill:none;stroke:#EBBC1E;stroke-width:16;stroke-linecap:round;stroke-linejoin:round;stroke-miterlimit:10;}
	.st6{fill:none;stroke:#63BC53;stroke-width:16;stroke-linecap:round;stroke-linejoin:round;stroke-miterlimit:10;}
	.st7{fill:none;stroke:#EF5799;stroke-width:16;stroke-linecap:round;stroke-linejoin:round;stroke-miterlimit:10;}
	.st8{fill:none;stroke:#6D2B90;stroke-width:16;stroke-linecap:round;stroke-linejoin:round;stroke-miterlimit:10;}
	.st9{fill:none;stroke:#785040;stroke-width:16;stroke-linecap:round;stroke-linejoin:round;stroke-miterlimit:10;}
	.st10{fill:none;stroke:#ABADAE;stroke-width:16;stroke-linecap:round;stroke-linejoin:round;stroke-miterlimit:10;}
	.st11{fill:#ABADAE;stroke:#C1E4DA;stroke-width:16;stroke-linecap:round;stroke-linejoin:round;stroke-miterlimit:10;}
	.st12{fill:none;stroke:#2B6A35;stroke-width:16;stroke-linecap:round;stroke-linejoin:round;stroke-miterlimit:10;}
	.st13{fill:#BBDEF2;}
	.st14{fill:none;}
	.st15{font-family:'Helvetica';}
	.st16{font-size:16px;}
	.st17{letter-spacing:1;}
	.st18{fill:none;stroke:#F597AA;stroke-width:16;stroke-linecap:round;stroke-linejoin:round;stroke-miterlimit:10;}
	.st19{fill:#FFFFFF;stroke:#FFFFFF;stroke-width:0.15;stroke-miterlimit:10;}
	.st20{font-size:10px;}
	.st21{fill:#FFFFFF;stroke:#000000;stroke-width:5;stroke-linecap:round;stroke-linejoin:round;stroke-miterlimit:10;}
	.st22{font-size:12.5154px;}
	.st23{fill:#FFFFFF;stroke:#000000;stroke-width:5;stroke-miterlimit:10;}
	.st24{font-size:10.7275px;}
	.st25{font-size:13px;}
	.st26{fill:#9D1F20;}
	.st27{fill:#FFFFFF;}
	.st28{fill:#B05541;}
	.st29{fill:#EF432C;}
	.st30{fill:#EBBC1E;}
	.st31{clip-path:url(#SVGID_2_);}
</style>
<path class="st0" d="M763.5,747c0,0,80.4,0,158.8,0c22.9,0,34.8,9.8,34.8,39.6c0,29.7,0,111,0,111"/>
<path class="st1" d="M554.5,979.5c0,0,0-60.2,0-95.7s16.7-48.5,37-48.5c20.3,0,251.2,0,251.2,0"/>
<line class="st2" x1="425.5" y1="244.3" x2="622.1" y2="244.3"/>
<line class="st3" x1="625.1" y1="242.8" x2="1052.2" y2="242.8"/>
<line class="st4" x1="422.5" y1="1121.3" x2="1052.3" y2="857.6"/>
<line class="st2" x1="419.3" y1="981.5" x2="1052" y2="982.1"/>
<path class="st2" d="M122,586.7c0,0-0.4,255.7,0,305.8c0.3,39.1,28.7,49.9,49,49.7l245.5,0.1"/>
<line class="st4" x1="32.3" y1="1138.5" x2="419.3" y2="1138.6"/>
<line class="st0" x1="419" y1="747" x2="898.5" y2="747"/>
<line class="st5" x1="570" y1="136.3" x2="751.3" y2="487.5"/>
<line class="st0" x1="763.5" y1="747" x2="905.4" y2="747"/>
<line class="st0" x1="763.5" y1="747" x2="898.5" y2="747"/>
<path class="st5" d="M751.6,1365c0.4-290.8,0.4-582.7,0-874"/>
<line class="st6" x1="29" y1="1365" x2="1052" y2="1365"/>
<line class="st7" x1="425" y1="1230.6" x2="1052" y2="1230.6"/>
<line class="st8" x1="29.1" y1="486.6" x2="1051.3" y2="486.6"/>
<line class="st2" x1="193.5" y1="510.8" x2="419.3" y2="284.9"/>
<line class="st9" x1="387.6" y1="710.3" x2="198.6" y2="521.2"/>
<line class="st10" x1="1056.1" y1="72.2" x2="1056.1" y2="1463.1"/>
<line class="st11" x1="25" y1="315.1" x2="25" y2="1463.1"/>
<path class="st11" d="M-9.8,487.5"/>
<path class="st11" d="M-9.8,1010.7"/>
<line class="st12" x1="419.3" y1="70.9" x2="419.3" y2="1257.8"/>
<path class="st13" d="M1037,1454.8c0,6.3-1.9,8.3-9,8.3H52.2c-7,0-10.2-1.6-10.2-7.8v-61.2c0-6.3,2.7-7.6,9.7-7.6h975.6
	c7,0,9.7,0.7,9.7,7V1454.8z"/>
<rect x="669.8" y="1416.9" class="st14" width="140.8" height="15.8"/>
<text transform="matrix(1 0 0 1 682.7043 1428.2563)" class="st15 st16 st17">SORTEDAM SØ</text>
<rect x="164.4" y="1417.3" class="st14" width="140.8" height="15.8"/>
<text transform="matrix(1 0 0 1 183.0856 1428.7036)" class="st15 st16 st17">PEBLINGE SØ</text>
<line class="st18" x1="735.7" y1="70.9" x2="608.8" y2="142.2"/>
<rect x="535.9" y="1226.1" class="st14" width="115.2" height="8.8"/>
<text transform="matrix(1 0 0 1 551.9865 1233.2485)" class="st19 st15 st20">RAVNSBORGGADE</text>
<rect x="547.8" y="1040.8" transform="matrix(0.9234 -0.3838 0.3838 0.9234 -354.7832 312.4384)" class="st14" width="115.2" height="8.6"/>
<text transform="matrix(0.9234 -0.3838 0.3838 0.9234 569.5855 1063.0443)" class="st19 st15 st20">FÆLLEDVEJ      3A </text>
<rect x="830.8" y="921.3" transform="matrix(0.9215 -0.3883 0.3883 0.9215 -289.6481 417.5639)" class="st14" width="115.2" height="8.4"/>
<text transform="matrix(0.9215 -0.3883 0.3883 0.9215 863.5858 939.0605)" class="st19 st15 st20">NØRRE ALLE</text>
<rect x="514.6" y="1360.6" class="st14" width="157.6" height="8.7"/>
<text transform="matrix(1 0 0 1 539.6027 1367.7407)" class="st19 st15 st20">SORTEDAM DOSSERING</text>
<rect x="165.3" y="1360.7" class="st14" width="157.6" height="8.6"/>
<text transform="matrix(1 0 0 1 193.8562 1367.8228)" class="st19 st15 st20">PEBLINGE DOSSERING</text>
<rect x="227.3" y="1134.4" class="st14" width="157.6" height="8.4"/>
<text transform="matrix(1 0 0 1 268.3659 1141.4624)" class="st19 st15 st20">BLÅGÅRDSGADE</text>
<rect x="213.5" y="938" class="st14" width="157.6" height="8.7"/>
<text transform="matrix(1 0 0 1 229.0124 945.0787)" class="st19 st15 st20">GRIFFENSFELDSGADE      3A </text>
<rect x="290.1" y="538.4" transform="matrix(0.7065 -0.7077 0.7077 0.7065 -350.4123 389.4059)" class="st14" width="8.3" height="157.6"/>
<text transform="matrix(0.7077 0.7065 -0.7065 0.7077 261.0687 588.1539)" class="st19 st15 st20">JÆGERSBORGGADE</text>
<rect x="239.7" y="381.1" transform="matrix(0.7063 -0.7079 0.7079 0.7063 -179.1847 338.6112)" class="st14" width="157.6" height="8.3"/>
<text transform="matrix(0.7063 -0.7079 0.7079 0.7063 298.8846 409.1091)" class="st19 st15 st20">STEFANSGADE</text>
<rect x="514.2" y="977.3" class="st14" width="157.6" height="8.5"/>
<text transform="matrix(1 0 0 1 567.8532 984.3677)" class="st19 st15 st20">ELMEGADE</text>
<rect x="117.4" y="699.6" class="st14" width="8.5" height="157.6"/>
<text transform="matrix(0 1 -1 0 118.7394 740.5167)" class="st19 st15 st20">RANTZAUSGADE</text>
<rect x="415.1" y="947.6" class="st14" width="8.4" height="157.6"/>
<text transform="matrix(0 1 -1 0 416.3386 972.899)" class="st19 st15 st20"> NØRREBROGADE      5A</text>
<rect x="415.1" y="487.5" class="st14" width="8.4" height="157.6"/>
<text transform="matrix(0 1 -1 0 416.3386 512.8145)" class="st19 st15 st20"> NØRREBROGADE      5A</text>
<rect x="415.1" y="200.8" class="st14" width="8.4" height="157.6"/>
<text transform="matrix(0 1 -1 0 416.3386 231.0797)" class="st19 st15 st20"> NØRREBROGADE      5A</text>
<rect x="747.3" y="1060.5" class="st14" width="8.5" height="157.6"/>
<text transform="matrix(0 1 -1 0 748.7624 1099.061)" class="st19 st15 st20">SANKT HANS GADE</text>
<rect x="747" y="722.3" class="st14" width="8.5" height="157.6"/>
<text transform="matrix(0 1 -1 0 748.4601 760.2881)" class="st19 st15 st20">GULDBERGSGADE</text>
<rect x="747" y="496.3" class="st14" width="8.5" height="157.6"/>
<text transform="matrix(0 1 -1 0 748.4601 534.3101)" class="st19 st15 st20">GULDBERGSGADE</text>
<rect x="682.3" y="289.4" transform="matrix(0.8891 -0.4578 0.4578 0.8891 -92.2543 355.7138)" class="st14" width="11.1" height="157.6"/>
<text transform="matrix(0.4578 0.8891 -0.8891 0.4578 672.1481 341.2105)" class="st19 st15 st20">MIMERSGADE</text>
<rect x="579.6" y="831" class="st14" width="157.6" height="8.5"/>
<text transform="matrix(1 0 0 1 632.5705 838.1314)" class="st19 st15 st20">BIRKEGADE</text>
<rect x="514.3" y="742.7" class="st14" width="157.6" height="8.6"/>
<text transform="matrix(1 0 0 1 564.3747 749.775)" class="st19 st15 st20">MØLLEGADE</text>
<rect x="725.9" y="830.9" class="st14" width="157.6" height="8.8"/>
<text transform="matrix(1 0 0 1 774.425 837.9664)" class="st19 st15 st20">AHORNSGADE</text>
<rect x="837.6" y="977.2" class="st14" width="157.6" height="8.6"/>
<text transform="matrix(1 0 0 1 869.1574 984.313)" class="st19 st15 st20">BLEGDAMSVEJ      3A </text>
<rect x="829.9" y="1226.3" class="st14" width="115.2" height="8.5"/>
<text transform="matrix(1 0 0 1 863.3137 1233.4146)" class="st19 st15 st20">RYESGADE</text>
<rect x="512.7" y="482.3" class="st14" width="157.6" height="8.7"/>
<text transform="matrix(1 0 0 1 561.8176 489.3702)" class="st19 st15 st20">JAGTVEJ      8A  </text>
<rect x="816.1" y="482.3" class="st14" width="157.6" height="8.6"/>
<text transform="matrix(1 0 0 1 865.2243 489.4336)" class="st19 st15 st20">JAGTVEJ      8A </text>
<rect x="1051.3" y="205.5" class="st14" width="8.7" height="157.6"/>
<text transform="matrix(0 1 -1 0 1052.9753 248.2818)" class="st19 st15 st20">TAGENSVEJ      6A </text>
<rect x="1052.3" y="575.8" class="st14" width="8.7" height="157.6"/>
<text transform="matrix(0 1 -1 0 1053.8835 614.5093)" class="st19 st15 st20">TAGENSVEJ      6A </text>
<rect x="1051.8" y="1026.3" class="st14" width="8.7" height="157.6"/>
<text transform="matrix(0 1 -1 0 1053.3835 1065.0269)" class="st19 st15 st20">TAGENSVEJ      6A </text>
<rect x="1052" y="1223.8" class="st14" width="8.6" height="146.4"/>
<text transform="matrix(0 1 -1 0 1053.4377 1254.5171)" class="st19 st15 st20">FREDENSVEJ      6A       </text>
<rect x="20.7" y="1200.4" class="st14" width="8.5" height="157.6"/>
<text transform="matrix(0 1 -1 0 22.1193 1248.9932)" class="st19 st15 st20"> ÅBOULEVARD</text>
<rect x="20.8" y="790.6" class="st14" width="8.4" height="157.6"/>
<text transform="matrix(0 1 -1 0 22.048 836.6993)" class="st19 st15 st20"> ÅBOULEVARD</text>
<rect x="773.5" y="743.1" class="st14" width="157.6" height="8.6"/>
<text transform="matrix(1 0 0 1 823.5759 750.2173)" class="st19 st15 st20">MØLLEGADE</text>
<rect x="20.8" y="344.6" class="st14" width="8.4" height="157.6"/>
<text transform="matrix(0 1 -1 0 22.048 405.9981)" class="st19 st15 st20"> ÅGADE</text>
<rect x="439" y="239.5" class="st14" width="157.6" height="8.7"/>
<text transform="matrix(1 0 0 1 490.945 246.5586)" class="st19 st15 st20">RØDE PLADS</text>
<rect x="666" y="238.5" class="st14" width="157.6" height="8.7"/>
<text transform="matrix(1 0 0 1 713.8249 245.5586)" class="st19 st15 st20">SORTE PLADS</text>
<rect x="818" y="238.5" class="st14" width="157.6" height="8.7"/>
<text transform="matrix(1 0 0 1 869.03 245.5586)" class="st19 st15 st20">SUPERKILEN</text>
<rect x="49.4" y="482.3" class="st14" width="131.1" height="8.7"/>
<text transform="matrix(1 0 0 1 81.8078 489.3702)" class="st19 st15 st20">JAGTVEJ      8A  </text>
<g>
	<path class="st21" d="M578.5,121.1c37-0.6,40.5,43.8,40.5,43.8h-40.5h-40.5C537.9,164.9,541.5,120.5,578.5,121.1z"/>
	<rect x="551.7" y="140.8" class="st14" width="53.6" height="14.9"/>
	<text transform="matrix(1 0 0 1 557.7853 149.6919)" class="st15 st22">LYGTEN</text>
</g>
<circle class="st23" cx="751.6" cy="982.2" r="44.1"/>
<rect x="724.5" y="964" class="st14" width="53.6" height="38.1"/>
<text transform="matrix(1 0 0 1 733.7609 972.8892)"><tspan x="0" y="0" class="st15 st22">SANKT</tspan><tspan x="2.4" y="12.5" class="st15 st22">HANS </tspan><tspan x="3.3" y="25" class="st15 st22">TORV</tspan></text>
<g>
	<path class="st21" d="M418.4,799.5c0,0,7.6-0.4,11-1.1c17.5-3.8,19.7-18.1,21.2-26.8c1.6-8.7,8.7-55.6,8.7-66.8
		c0-11.2-5.8-14.3-11.7-18.3c-5.9-4-23.4-4.1-29.2-4.1c-5.8,0-23.4,0.1-29.2,4.1c-5.9,4-11.7,7.1-11.7,18.3
		c0,11.2,7.2,58.1,8.7,66.8c1.6,8.7,3.8,23,21.2,26.8C410.9,799.1,418.4,799.5,418.4,799.5z"/>
	<rect x="384.1" y="719.7" class="st14" width="68.7" height="37.8"/>
	<text transform="matrix(1 0 0 1 390.4724 728.6148)"><tspan x="0" y="0" class="st15 st22">ASSISTENS</tspan><tspan x="11.3" y="12.5" class="st15 st22">KIRKE-</tspan><tspan x="8.7" y="25" class="st15 st22">GAARD</tspan></text>
</g>
<g>
	<path class="st21" d="M419,1501.5h35.8c0,0,0-128.5,0-145.9c0-17.4-14.7-26.1-16.5-27.2c-1.8-1-4.1-4.9-4.1-8.2v-61.7H419h-15.2
		v61.7c0,3.4-2.3,7.2-4.1,8.2c-1.8,1-16.5,9.7-16.5,27.2c0,17.4,0,145.9,0,145.9H419z"/>
	<rect x="384.4" y="1384.7" class="st14" width="68.7" height="62.2"/>
	<text transform="matrix(1 0 0 1 393.2541 1392.3091)"><tspan x="0" y="0" class="st15 st24">DRONNING</tspan><tspan x="9.2" y="12.5" class="st15 st24">LOUISE</tspan><tspan x="16" y="25" class="st15 st24">BRO</tspan></text>
</g>
<path class="st21" d="M160.2,512.5c0,0,32.9-31.5,35.9-34.3c3-2.9,22.1-21.4,37.5-5.3c15.4,16.1-3.9,34.4-6.9,37.2
	c-3,2.9-35.9,34.3-35.9,34.3s-32.9,31.5-35.9,34.3c-3,2.9-22.1,21.4-37.5,5.3c-15.4-16.1,3.9-34.4,6.9-37.2
	C127.3,543.9,160.2,512.5,160.2,512.5z"/>
<rect x="137.7" y="515.2" transform="matrix(0.7249 -0.6889 0.6889 0.7249 -315.4284 267.0175)" class="st14" width="77.7" height="26.4"/>
<text transform="matrix(0.7249 -0.6889 0.6889 0.7249 151.7876 546.5211)"><tspan x="0" y="0" class="st15 st25">NØRREBRO</tspan><tspan x="8.5" y="13.6" class="st15 st25">PARKEN</tspan></text>
<path class="st23" d="M215.2,1148.7c0,6.6-5.4,12-12,12h-46c-6.6,0-12-5.4-12-12v-62c0-6.6,5.4-12,12-12h46c6.6,0,12,5.4,12,12
	V1148.7z"/>
<rect x="152.4" y="1097.7" class="st14" width="53.6" height="43.4"/>
<text transform="matrix(1 0 0 1 169.0407 1106.5522)"><tspan x="0" y="0" class="st15 st22">BLÅ</tspan><tspan x="-8.3" y="14" class="st15 st22">GÅRDS</tspan><tspan x="-7.2" y="28" class="st15 st22">PLADS</tspan></text>
<rect x="447.9" y="22" class="st14" width="96.7" height="20.3"/>
<text transform="matrix(1 0 0 1 458.7985 33.3409)" class="st15 st16">NØRREBRO</text>
<rect x="504.7" y="1484.7" transform="matrix(1.280834e-02 -0.9999 0.9999 1.280834e-02 -1030.9507 2034.3937)" class="st14" width="20.3" height="109.3"/>
<text transform="matrix(1 0 0 1 463.1013 1539.811)" class="st15 st16">NØRREPORT</text>
<g id="wlHwx7.tif_1_">
	<g>
		<g>
			<path class="st26" d="M388.4,1545.2c0-0.1,0-0.1,0-0.2c0.3-1.2,0.8-1.6,2.1-1.6c3.7,0,7.3,0,11,0c0.8,0,0.9-0.1,0.9-0.9
				c0.1-2,0.3-3.9,0.5-5.9c0.1-1.4,0.2-2.9,0.3-4.3c0.2-1.8,0.3-3.6,0.5-5.4c0.1-1.4,0.2-2.8,0.3-4.1c0.1-1.5,0.3-3,0.4-4.5
				c0.1-1,0.2-1.9,0.2-2.9c0-0.3,0-0.6,0.3-0.8c3.7,0,7.3,0,11,0c0.2,0.2,0.3,0.4,0.3,0.6c0.9,4.9,1.9,9.8,2.8,14.7
				c0,0.2,0,0.5,0.1,0.7c-0.1-0.6,0.2-1.2,0.3-1.8c0.9-4.5,1.9-9,2.8-13.4c0.1-0.3,0.1-0.6,0.4-0.9c3.5,0,7,0,10.5,0
				c0.2,0.2,0.3,0.4,0.3,0.6c0.1,1.4,0.2,2.7,0.3,4.1c0.1,1.4,0.2,2.9,0.4,4.3c0.1,1.4,0.2,2.7,0.3,4.1c0.1,1.5,0.3,3,0.4,4.5
				c0.1,1.4,0.2,2.8,0.4,4.2c0.1,1.4,0.2,2.9,0.4,4.3c0.1,0.6,0.1,1.2,0.1,1.7c0,0.8,0.1,0.9,0.9,0.9c3.6,0,7.2,0,10.8,0
				c0.3,0,0.5,0,0.8,0c1.1,0.1,1.8,0.8,1.8,1.9c0,3.7,0,7.4,0,11.2c0,1.1-0.5,1.7-1.6,1.7c-0.2,0-0.3,0-0.5,0c-19.1,0-38.1,0-57.2,0
				c-0.1,0-0.2,0-0.3,0c-1.3,0-1.6-0.3-1.9-1.5c0-0.1,0-0.1,0-0.2c0.1-0.1,0.1-0.3,0.1-0.4c0-3.5,0-7,0-10.5
				C388.5,1545.4,388.5,1545.3,388.4,1545.2z"/>
			<path class="st27" d="M388.4,1556.6c0.4,1.1,1.3,1.4,2.4,1.4c18.9,0,37.9,0,56.8,0c1.3,0,2.2-0.7,2.2-2.2c-0.1-3.4,0-6.9,0-10.3
				c0-1.3-0.7-2-2-2c-3.9,0-7.8,0-11.7,0c-0.4,0-0.6-0.1-0.6-0.5c-0.2-2.6-0.4-5.2-0.6-7.8c-0.3-3.1-0.5-6.2-0.8-9.3
				c-0.3-3-0.5-6.1-0.8-9.1c-0.1-0.7-0.1-1.5-0.2-2.2c5.5,0,10.9,0,16.4,0c0.4,0,0.4,0.1,0.4,0.4c0,14.2,0,28.5,0,42.7
				c0,0.4-0.1,0.4-0.4,0.4c-20.2,0-40.5,0-60.7,0c-0.4,0-0.5-0.1-0.4-0.4C388.5,1557.4,388.4,1557,388.4,1556.6z"/>
			<path class="st27" d="M405,1514.6c-0.1,1.5-0.3,3-0.4,4.4c-0.3,3.5-0.6,7-0.9,10.5c-0.3,3-0.5,6-0.8,9c-0.1,1.5-0.3,3.1-0.4,4.6
				c0,0.4-0.2,0.4-0.5,0.4c-3.8,0-7.5,0-11.3,0c-1.1,0-2,0.3-2.4,1.4c0-10,0-19.9,0-29.9c0-0.3,0-0.5,0.4-0.5
				C394.3,1514.6,399.7,1514.6,405,1514.6z"/>
			<path class="st27" d="M422.7,1514.6c-0.5,2.5-1.1,5.1-1.6,7.6c-0.6,2.8-1.2,5.6-1.8,8.4c0,0.1-0.1,0.2-0.1,0.4
				c-0.5-2.8-1.1-5.6-1.6-8.3c-0.5-2.6-1-5.2-1.5-7.8c0-0.1,0-0.3,0-0.4C418.2,1514.6,420.5,1514.6,422.7,1514.6z"/>
			<path class="st28" d="M388.4,1545.2c0.2,0.2,0.1,0.4,0.1,0.5c0,3.4,0,6.8,0,10.2c0,0.2,0.1,0.4-0.1,0.5
				C388.4,1552.7,388.4,1548.9,388.4,1545.2z"/>
			<path class="st27" d="M426.8,1523.4c0.2,2.7,0.4,5.4,0.6,8.1c0.3,3.4,0.5,6.8,0.8,10.3c0,0.3,0,0.6,0.1,0.9
				c0.1,0.9,0.1,0.9-0.8,0.9c-1.8,0-3.6,0-5.4,0C423.6,1536.8,425.1,1530.1,426.8,1523.4C426.7,1523.4,426.8,1523.4,426.8,1523.4z"
				/>
			<path class="st27" d="M411.5,1523.4c0.6,2.8,1.2,5.4,1.8,8.1c0.9,3.8,1.7,7.7,2.6,11.5c0.1,0.4,0,0.5-0.4,0.5c-1.7,0-3.5,0-5.2,0
				c-0.3,0-0.4-0.1-0.4-0.4c0.3-3.8,0.6-7.5,0.9-11.3c0.2-2.5,0.4-5,0.6-7.4C411.3,1524.1,411.3,1523.8,411.5,1523.4z"/>
		</g>
	</g>
</g>
<g id="p7HCbV.tif_1_">
	<g>
		<g>
			<path class="st29" d="M409.4,8.6c6.8,0,13.6,0,20.3,0c2.6,0,3.9,1.7,5.1,3.7c2.7,4.8,5.6,9.6,8.3,14.4c1.4,2.4,1.4,4.9,0,7.4
				c-2.9,5.1-5.9,10.1-8.7,15.1c-1.2,2.1-2.9,3.1-5.3,3.1c-6.3-0.1-12.6,0-19,0c-2.4,0-4.1-1-5.3-3.1c-3-5.2-6-10.3-9-15.5
				c-0.5-0.8-0.4-1.8-0.7-2.7c0-0.5,0-0.9,0-1.4c0.1-2,1.2-3.6,2.2-5.2c2.5-4.3,5-8.6,7.5-12.9c0.3-0.5,0.6-0.9,0.9-1.4
				C406.6,8.9,408,8.8,409.4,8.6z"/>
			<path class="st27" d="M395.1,31.1c1.4,3.8,3.8,7.1,5.8,10.6c1.4,2.6,3,5.1,4.5,7.7c1.1,1.9,2.8,2.8,5,2.8c6.1,0,12.3,0,18.4,0
				c2.2,0,3.9-0.9,5.1-2.9c3.1-5.4,6.2-10.8,9.4-16.1c1.1-1.9,1.1-3.7,0-5.6c-3-5.1-6-10.2-8.9-15.3c-1.1-1.9-2.4-3.3-4.6-3.7
				c4.6,0,9.3,0,13.9,0c0.5,0,0.6,0.1,0.6,0.6c0,14.2,0,28.4,0,42.6c0,0.5-0.1,0.6-0.6,0.6c-16,0-32,0-47.9,0
				c-0.7,0-0.6-0.3-0.6-0.7C395.1,44.8,395.1,37.9,395.1,31.1z"/>
			<path class="st27" d="M409.4,8.6c-2.5,0.5-3.8,2.2-4.9,4.3c-2.6,4.7-5.4,9.3-8.1,14c-0.5,0.9-0.9,1.9-1.2,2.8
				c0-6.8,0-13.6,0-20.4c0-0.6,0.1-0.8,0.7-0.8C400.3,8.6,404.8,8.6,409.4,8.6z"/>
			<path class="st27" d="M421.2,16.4c2.8-0.1,5.7,0.3,8.5,0.6c0.5,0,0.7,0.2,0.7,0.7c0,0.9-0.1,1.9,0,2.8c0,0.7-0.2,0.8-0.8,0.8
				c-3.2-0.3-6.4-0.7-9.7-0.6c-1,0-2,0.1-2.9,0.4c-1.3,0.5-1.9,1.2-1.8,2.2c0,1.2,0.7,1.9,1.8,2.3c1.9,0.8,4,0.9,6,1.3
				c1.5,0.3,2.9,0.6,4.3,1.2c2.5,1,4.1,2.7,4.4,5.5c0.4,3.1-0.5,5.7-3.1,7.5c-2.5,1.7-5.3,2.3-8.2,2.4c-4.1,0.2-8.1-0.3-12.2-0.8
				c-0.6-0.1-0.8-0.3-0.7-0.9c0.1-0.9,0.1-1.9,0-2.8c-0.1-0.8,0.2-1,1-0.9c2.2,0.4,4.4,0.7,6.6,0.8c2,0.1,4,0.2,5.9-0.3
				c0.5-0.1,0.9-0.3,1.4-0.4c1.1-0.5,1.8-1.3,1.8-2.5c0-1.1-0.7-2-1.9-2.5c-1.5-0.6-3-0.8-4.6-1c-2-0.3-3.9-0.6-5.8-1.4
				c-2.4-1-3.8-2.8-4-5.5c-0.2-2.8,0.6-5.1,3-6.7c2.2-1.5,4.8-2,7.4-2.2C419.2,16.3,420.2,16.4,421.2,16.4z"/>
		</g>
	</g>
</g>
<rect x="664.5" y="651.4" class="st30" width="79.5" height="16.2"/>
<circle class="st30" cx="664.5" cy="659.5" r="8.1"/>
<ellipse class="st30" cx="666.6" cy="653.6" rx="0" ry="0.2"/>
<g>
	<defs>
		
			<rect id="SVGID_1_" x="391.8" y="25.2" transform="matrix(-1 -1.224647e-16 1.224647e-16 -1 788.4941 60.4941)" width="5" height="10"/>
	</defs>
	<clipPath id="SVGID_2_">
		<use xlink:href="#SVGID_1_"  style="overflow:visible;"/>
	</clipPath>
	<g id="p7HCbV.tif_2_" class="st31">
		<g>
			<path class="st29" d="M429.7,52.2c-6.8,0-13.6,0-20.3,0c-2.6,0-3.9-1.7-5.1-3.7c-2.7-4.8-5.6-9.6-8.3-14.4
				c-1.4-2.4-1.4-4.9,0-7.4c2.9-5.1,5.9-10.1,8.7-15.1c1.2-2.1,2.9-3.1,5.3-3.1c6.3,0.1,12.6,0,19,0c2.4,0,4.1,1,5.3,3.1
				c3,5.2,6,10.3,9,15.5c0.5,0.8,0.4,1.8,0.7,2.7c0,0.5,0,0.9,0,1.4c-0.1,2-1.2,3.6-2.2,5.2c-2.5,4.3-5,8.6-7.5,12.9
				c-0.3,0.5-0.6,0.9-0.9,1.4C432.5,51.8,431.1,52,429.7,52.2z"/>
			<path class="st27" d="M444,29.7c-1.4-3.8-3.8-7.1-5.8-10.6c-1.4-2.6-3-5.1-4.5-7.7c-1.1-1.9-2.8-2.8-5-2.8c-6.1,0-12.3,0-18.4,0
				c-2.2,0-3.9,0.9-5.1,2.9c-3.1,5.4-6.2,10.8-9.4,16.1c-1.1,1.9-1.1,3.7,0,5.6c3,5.1,6,10.2,8.9,15.3c1.1,1.9,2.4,3.3,4.6,3.7
				c-4.6,0-9.3,0-13.9,0c-0.5,0-0.6-0.1-0.6-0.6c0-14.2,0-28.4,0-42.6c0-0.5,0.1-0.6,0.6-0.6c16,0,32,0,47.9,0
				c0.7,0,0.6,0.3,0.6,0.7C444,15.9,444,22.8,444,29.7z"/>
			<path class="st27" d="M429.7,52.2c2.5-0.5,3.8-2.2,4.9-4.3c2.6-4.7,5.4-9.3,8.1-14c0.5-0.9,0.9-1.9,1.2-2.8c0,6.8,0,13.6,0,20.4
				c0,0.6-0.1,0.8-0.7,0.8C438.7,52.2,434.2,52.2,429.7,52.2z"/>
			<path class="st27" d="M417.9,44.3c-2.8,0.1-5.7-0.3-8.5-0.6c-0.5,0-0.7-0.2-0.7-0.7c0-0.9,0.1-1.9,0-2.8c0-0.7,0.2-0.8,0.8-0.8
				c3.2,0.3,6.4,0.7,9.7,0.6c1,0,2-0.1,2.9-0.4c1.3-0.5,1.9-1.2,1.8-2.2c0-1.2-0.7-1.9-1.8-2.3c-1.9-0.8-4-0.9-6-1.3
				c-1.5-0.3-2.9-0.6-4.3-1.2c-2.5-1-4.1-2.7-4.4-5.5c-0.4-3.1,0.5-5.7,3.1-7.5c2.5-1.7,5.3-2.3,8.2-2.4c4.1-0.2,8.1,0.3,12.2,0.8
				c0.6,0.1,0.8,0.3,0.7,0.9c-0.1,0.9-0.1,1.9,0,2.8c0.1,0.8-0.2,1-1,0.9c-2.2-0.4-4.4-0.7-6.6-0.8c-2-0.1-4-0.2-5.9,0.3
				c-0.5,0.1-0.9,0.3-1.4,0.4c-1.1,0.5-1.8,1.3-1.8,2.5c0,1.1,0.7,2,1.9,2.5c1.5,0.6,3,0.8,4.6,1c2,0.3,3.9,0.6,5.8,1.4
				c2.4,1,3.8,2.8,4,5.5c0.2,2.8-0.6,5.1-3,6.7c-2.2,1.5-4.8,2-7.4,2.2C419.8,44.4,418.8,44.3,417.9,44.3z"/>
		</g>
	</g>
</g>
</svg>
